<?xml version="1.0" encoding="UTF-8"?>
<svg xmlns="http://www.w3.org/2000/svg" xmlns:xlink="http://www.w3.org/1999/xlink" id="img" width="75pt" height="75pt" viewBox="130 95 1116 889">
<defs>
<clipPath id="clip-0">
<path clip-rule="nonzero" d="M 785 203 L 820 203 L 820 289 L 785 289 Z M 785 203 "/>
</clipPath>
<clipPath id="clip-1">
<path clip-rule="nonzero" d="M 219 179 L 260 179 L 260 690 L 219 690 Z M 219 179 "/>
</clipPath>
<clipPath id="clip-2">
<path clip-rule="nonzero" d="M 805 62 L 812 62 L 812 68 L 805 68 Z M 805 62 "/>
</clipPath>
<clipPath id="clip-3">
<path clip-rule="nonzero" d="M 1642.40625 244.488281 L 526.632812 221.972656 L 544.585938 -667.679688 L 1660.359375 -645.164062 Z M 1642.40625 244.488281 "/>
</clipPath>
<clipPath id="clip-4">
<path clip-rule="nonzero" d="M 804 77 L 838 77 L 838 97 L 804 97 Z M 804 77 "/>
</clipPath>
<clipPath id="clip-5">
<path clip-rule="nonzero" d="M 1642.40625 244.488281 L 526.632812 221.972656 L 544.585938 -667.679688 L 1660.359375 -645.164062 Z M 1642.40625 244.488281 "/>
</clipPath>
<clipPath id="clip-6">
<path clip-rule="nonzero" d="M 803 103 L 838 103 L 838 126 L 803 126 Z M 803 103 "/>
</clipPath>
<clipPath id="clip-7">
<path clip-rule="nonzero" d="M 1642.40625 244.488281 L 526.632812 221.972656 L 544.585938 -667.679688 L 1660.359375 -645.164062 Z M 1642.40625 244.488281 "/>
</clipPath>
<clipPath id="clip-8">
<path clip-rule="nonzero" d="M 537 98 L 543 98 L 543 104 L 537 104 Z M 537 98 "/>
</clipPath>
<clipPath id="clip-9">
<path clip-rule="nonzero" d="M 353.160156 803.828125 L 381.402344 -311.8125 L 1270.949219 -289.296875 L 1242.707031 826.347656 Z M 353.160156 803.828125 "/>
</clipPath>
<clipPath id="clip-10">
<path clip-rule="nonzero" d="M 511 67 L 545 67 L 545 90 L 511 90 Z M 511 67 "/>
</clipPath>
<clipPath id="clip-11">
<path clip-rule="nonzero" d="M 353.160156 803.828125 L 381.402344 -311.8125 L 1270.949219 -289.296875 L 1242.707031 826.347656 Z M 353.160156 803.828125 "/>
</clipPath>
<clipPath id="clip-12">
<path clip-rule="nonzero" d="M 513 39 L 547 39 L 547 63 L 513 63 Z M 513 39 "/>
</clipPath>
<clipPath id="clip-13">
<path clip-rule="nonzero" d="M 353.160156 803.828125 L 381.402344 -311.8125 L 1270.949219 -289.296875 L 1242.707031 826.347656 Z M 353.160156 803.828125 "/>
</clipPath>
<clipPath id="clip-14">
<path clip-rule="nonzero" d="M 1009 422 L 1016 422 L 1016 429 L 1009 429 Z M 1009 422 "/>
</clipPath>
<clipPath id="clip-15">
<path clip-rule="nonzero" d="M 951.027344 1270.378906 L 754.761719 171.773438 L 1630.726562 15.277344 L 1826.992188 1113.886719 Z M 951.027344 1270.378906 "/>
</clipPath>
<clipPath id="clip-16">
<path clip-rule="nonzero" d="M 1013 388 L 1039 388 L 1039 421 L 1013 421 Z M 1013 388 "/>
</clipPath>
<clipPath id="clip-17">
<path clip-rule="nonzero" d="M 951.027344 1270.378906 L 754.761719 171.773438 L 1630.726562 15.277344 L 1826.992188 1113.886719 Z M 951.027344 1270.378906 "/>
</clipPath>
<clipPath id="clip-18">
<path clip-rule="nonzero" d="M 1037 377 L 1068 377 L 1068 412 L 1037 412 Z M 1037 377 "/>
</clipPath>
<clipPath id="clip-19">
<path clip-rule="nonzero" d="M 951.027344 1270.378906 L 754.761719 171.773438 L 1630.726562 15.277344 L 1826.992188 1113.886719 Z M 951.027344 1270.378906 "/>
</clipPath>
<clipPath id="clip-20">
<path clip-rule="nonzero" d="M 861 589 L 869 589 L 869 597 L 861 597 Z M 861 589 "/>
</clipPath>
<clipPath id="clip-21">
<path clip-rule="nonzero" d="M 1171.90625 -344.316406 L 1644.355469 666.746094 L 838.191406 1043.453125 L 365.742188 32.390625 Z M 1171.90625 -344.316406 "/>
</clipPath>
<clipPath id="clip-22">
<path clip-rule="nonzero" d="M 867 592 L 902 592 L 902 621 L 867 621 Z M 867 592 "/>
</clipPath>
<clipPath id="clip-23">
<path clip-rule="nonzero" d="M 1171.90625 -344.316406 L 1644.355469 666.746094 L 838.191406 1043.453125 L 365.742188 32.390625 Z M 1171.90625 -344.316406 "/>
</clipPath>
<clipPath id="clip-24">
<path clip-rule="nonzero" d="M 879 620 L 913 620 L 913 648 L 879 648 Z M 879 620 "/>
</clipPath>
<clipPath id="clip-25">
<path clip-rule="nonzero" d="M 1171.90625 -344.316406 L 1644.355469 666.746094 L 838.191406 1043.453125 L 365.742188 32.390625 Z M 1171.90625 -344.316406 "/>
</clipPath>
<clipPath id="clip-26">
<path clip-rule="nonzero" d="M 219 675 L 535 675 L 535 711 L 219 711 Z M 219 675 "/>
</clipPath>
<clipPath id="clip-27">
<path clip-rule="nonzero" d="M 552 195 L 683 195 L 683 215 L 552 215 Z M 552 195 "/>
</clipPath>
<clipPath id="clip-28">
<path clip-rule="nonzero" d="M 667 200 L 802 200 L 802 220 L 667 220 Z M 667 200 "/>
</clipPath>
<clipPath id="clip-29">
<path clip-rule="nonzero" d="M 520 195 L 568 195 L 568 711 L 520 711 Z M 520 195 "/>
</clipPath>
<clipPath id="clip-30">
<path clip-rule="nonzero" d="M 802 270 L 899 270 L 899 515 L 802 515 Z M 802 270 "/>
</clipPath>
</defs>
<rect x="-111.6" y="-88.9" width="1339.2" height="1066.8" fill="var(--bg-color)" fill-opacity="1"/>
<g clip-path="url(#clip-0)">
<path fill="none" stroke-width="14" stroke-linecap="square" stroke-linejoin="round" stroke="rgb(94.116211%, 0%, 0%)" stroke-opacity="1" stroke-miterlimit="100000" d="M 811.121094 609.460938 L 799.777344 651.394531 L 794.105469 677.015625 " transform="matrix(1, 0, 0, -1, 0, 889)"/>
</g>
<path fill-rule="nonzero" fill="rgb(94.116211%, 0%, 0%)" fill-opacity="1" d="M 226.886719 682.523438 L 252.410156 186.359375 "/>
<g clip-path="url(#clip-1)">
<path fill="none" stroke-width="14" stroke-linecap="square" stroke-linejoin="round" stroke="rgb(94.116211%, 0%, 0%)" stroke-opacity="1" stroke-miterlimit="100000" d="M 226.886719 206.476562 L 252.410156 702.640625 " transform="matrix(1, 0, 0, -1, 0, 889)"/>
</g>
<path fill-rule="nonzero" fill="var(--main-color)" fill-opacity="1" d="M 56.121094 642.785156 L 60.652344 642.972656 L 60.429688 648.425781 L 55.894531 648.238281 Z M 56.121094 642.785156 "/>
<path fill-rule="nonzero" fill="var(--main-color)" fill-opacity="1" d="M 83.71875 632.070312 C 85.777344 632.597656 87.359375 633.589844 88.464844 635.042969 C 89.574219 636.492188 90.085938 638.25 90 640.308594 C 89.871094 643.46875 88.683594 645.871094 86.4375 647.519531 C 84.191406 649.160156 81.0625 649.898438 77.058594 649.734375 C 75.714844 649.679688 74.335938 649.488281 72.925781 649.164062 C 71.511719 648.839844 70.058594 648.382812 68.5625 647.789062 L 68.734375 643.605469 C 69.90625 644.355469 71.199219 644.9375 72.613281 645.355469 C 74.03125 645.769531 75.523438 646.011719 77.082031 646.074219 C 79.800781 646.1875 81.890625 645.734375 83.359375 644.722656 C 84.828125 643.710938 85.601562 642.179688 85.6875 640.132812 C 85.765625 638.242188 85.164062 636.738281 83.882812 635.621094 C 82.605469 634.5 80.785156 633.890625 78.425781 633.792969 L 74.691406 633.640625 L 74.835938 630.074219 L 78.746094 630.234375 C 80.875 630.320312 82.523438 629.964844 83.6875 629.15625 C 84.855469 628.351562 85.472656 627.148438 85.535156 625.546875 C 85.605469 623.902344 85.070312 622.617188 83.941406 621.6875 C 82.8125 620.757812 81.164062 620.246094 78.988281 620.15625 C 77.796875 620.109375 76.515625 620.1875 75.144531 620.390625 C 73.773438 620.59375 72.261719 620.929688 70.609375 621.402344 L 70.769531 617.542969 C 72.4375 617.152344 73.992188 616.871094 75.441406 616.703125 C 76.886719 616.53125 78.25 616.472656 79.523438 616.527344 C 82.8125 616.660156 85.386719 617.515625 87.238281 619.09375 C 89.097656 620.664062 89.972656 622.722656 89.867188 625.269531 C 89.796875 627.046875 89.226562 628.523438 88.160156 629.707031 C 87.09375 630.886719 85.613281 631.675781 83.71875 632.070312 "/>
<path fill-rule="nonzero" fill="var(--main-color)" fill-opacity="1" d="M 98 649.300781 L 98.160156 645.351562 C 99.230469 645.914062 100.3125 646.351562 101.417969 646.667969 C 102.523438 646.984375 103.613281 647.164062 104.691406 647.207031 C 107.550781 647.324219 109.777344 646.453125 111.363281 644.59375 C 112.953125 642.730469 113.933594 639.84375 114.3125 635.925781 C 113.433594 637.125 112.339844 638.027344 111.035156 638.632812 C 109.734375 639.242188 108.3125 639.511719 106.769531 639.449219 C 103.5625 639.316406 101.066406 638.246094 99.277344 636.230469 C 97.488281 634.214844 96.664062 631.519531 96.800781 628.15625 C 96.9375 624.867188 98.019531 622.269531 100.046875 620.363281 C 102.074219 618.449219 104.707031 617.558594 107.9375 617.691406 C 111.648438 617.84375 114.417969 619.382812 116.253906 622.308594 C 118.09375 625.226562 118.902344 629.390625 118.679688 634.796875 C 118.472656 639.851562 117.105469 643.832031 114.582031 646.746094 C 112.0625 649.664062 108.78125 651.035156 104.730469 650.871094 C 103.640625 650.824219 102.542969 650.671875 101.433594 650.410156 C 100.332031 650.152344 99.183594 649.78125 98 649.300781 M 107.183594 636.066406 C 109.128906 636.148438 110.699219 635.546875 111.890625 634.265625 C 113.082031 632.980469 113.730469 631.175781 113.824219 628.855469 C 113.917969 626.550781 113.421875 624.707031 112.339844 623.324219 C 111.257812 621.9375 109.742188 621.207031 107.796875 621.128906 C 105.851562 621.046875 104.28125 621.652344 103.09375 622.941406 C 101.902344 624.234375 101.257812 626.03125 101.164062 628.335938 C 101.070312 630.65625 101.5625 632.507812 102.644531 633.886719 C 103.722656 635.261719 105.238281 635.988281 107.183594 636.066406 "/>
<path fill-rule="nonzero" fill="var(--main-color)" fill-opacity="1" d="M 717.332031 681.28125 L 721.863281 681.523438 L 721.570312 686.976562 L 717.039062 686.734375 Z M 717.332031 681.28125 "/>
<path fill-rule="nonzero" fill="var(--main-color)" fill-opacity="1" d="M 769.039062 674.25 C 766.980469 674.140625 765.332031 674.605469 764.089844 675.644531 C 762.855469 676.6875 762.1875 678.167969 762.085938 680.097656 C 761.980469 682.027344 762.488281 683.578125 763.605469 684.742188 C 764.730469 685.90625 766.320312 686.546875 768.378906 686.65625 C 770.4375 686.765625 772.089844 686.296875 773.335938 685.253906 C 774.585938 684.207031 775.261719 682.722656 775.363281 680.804688 C 775.464844 678.878906 774.957031 677.332031 773.832031 676.164062 C 772.714844 675 771.117188 674.359375 769.039062 674.25 M 764.808594 672.179688 C 762.972656 671.621094 761.570312 670.679688 760.597656 669.351562 C 759.632812 668.019531 759.199219 666.4375 759.296875 664.609375 C 759.433594 662.050781 760.453125 660.074219 762.351562 658.683594 C 764.257812 657.296875 766.796875 656.683594 769.96875 656.855469 C 773.160156 657.023438 775.621094 657.902344 777.359375 659.484375 C 779.097656 661.070312 779.898438 663.140625 779.761719 665.699219 C 779.664062 667.53125 779.0625 669.054688 777.953125 670.277344 C 776.851562 671.496094 775.367188 672.285156 773.5 672.644531 C 775.558594 673.238281 777.132812 674.277344 778.21875 675.757812 C 779.3125 677.234375 779.804688 678.992188 779.695312 681.035156 C 779.527344 684.144531 778.453125 686.476562 776.46875 688.039062 C 774.488281 689.59375 771.730469 690.277344 768.195312 690.089844 C 764.667969 689.898438 761.996094 688.925781 760.1875 687.167969 C 758.378906 685.40625 757.558594 682.972656 757.726562 679.863281 C 757.835938 677.824219 758.511719 676.125 759.757812 674.773438 C 761.011719 673.417969 762.695312 672.554688 764.808594 672.179688 M 763.585938 665.25 C 763.496094 666.90625 763.945312 668.226562 764.929688 669.210938 C 765.921875 670.195312 767.351562 670.738281 769.222656 670.839844 C 771.085938 670.9375 772.566406 670.550781 773.664062 669.675781 C 774.765625 668.804688 775.359375 667.539062 775.449219 665.882812 C 775.539062 664.222656 775.082031 662.898438 774.078125 661.914062 C 773.078125 660.929688 771.648438 660.386719 769.785156 660.285156 C 767.914062 660.1875 766.433594 660.574219 765.34375 661.445312 C 764.261719 662.320312 763.675781 663.589844 763.585938 665.25 "/>
<path fill-rule="nonzero" fill="var(--main-color)" fill-opacity="1" d="M 510.34375 484.113281 L 510.636719 479.582031 L 516.085938 479.9375 L 515.789062 484.464844 Z M 510.34375 484.113281 "/>
<path fill-rule="nonzero" fill="var(--main-color)" fill-opacity="1" d="M 516.042969 470.335938 L 512.097656 470.078125 C 512.683594 469.023438 513.148438 467.949219 513.492188 466.855469 C 513.835938 465.757812 514.039062 464.671875 514.109375 463.597656 C 514.296875 460.738281 513.476562 458.492188 511.65625 456.863281 C 509.832031 455.230469 506.96875 454.175781 503.0625 453.707031 C 504.238281 454.613281 505.117188 455.726562 505.691406 457.046875 C 506.265625 458.359375 506.503906 459.789062 506.402344 461.332031 C 506.195312 464.53125 505.0625 467.003906 503.007812 468.742188 C 500.945312 470.484375 498.234375 471.242188 494.875 471.023438 C 491.589844 470.808594 489.019531 469.667969 487.160156 467.59375 C 485.296875 465.519531 484.46875 462.871094 484.679688 459.640625 C 484.921875 455.9375 486.527344 453.203125 489.492188 451.4375 C 492.457031 449.667969 496.636719 448.960938 502.039062 449.3125 C 507.085938 449.640625 511.035156 451.101562 513.886719 453.695312 C 516.742188 456.28125 518.035156 459.597656 517.773438 463.640625 C 517.703125 464.730469 517.523438 465.824219 517.234375 466.925781 C 516.949219 468.023438 516.550781 469.160156 516.042969 470.335938 M 503.03125 460.835938 C 503.160156 458.890625 502.597656 457.308594 501.34375 456.089844 C 500.085938 454.863281 498.300781 454.175781 495.980469 454.023438 C 493.679688 453.875 491.824219 454.324219 490.414062 455.378906 C 489.003906 456.425781 488.238281 457.917969 488.109375 459.863281 C 487.984375 461.808594 488.550781 463.390625 489.8125 464.609375 C 491.074219 465.832031 492.855469 466.519531 495.15625 466.667969 C 497.476562 466.820312 499.335938 466.371094 500.742188 465.324219 C 502.144531 464.273438 502.90625 462.777344 503.03125 460.835938 "/>
<path fill-rule="nonzero" fill="var(--main-color)" fill-opacity="1" d="M 489.964844 431.414062 C 489.820312 433.640625 490.808594 435.390625 492.929688 436.65625 C 495.046875 437.921875 498.308594 438.695312 502.710938 438.980469 C 507.097656 439.269531 510.425781 438.921875 512.695312 437.945312 C 514.964844 436.960938 516.171875 435.359375 516.316406 433.128906 C 516.460938 430.882812 515.472656 429.128906 513.351562 427.867188 C 511.230469 426.597656 507.972656 425.820312 503.589844 425.535156 C 499.183594 425.25 495.851562 425.597656 493.585938 426.578125 C 491.316406 427.558594 490.109375 429.167969 489.964844 431.414062 M 486.535156 431.191406 C 486.765625 427.601562 488.367188 424.949219 491.328125 423.242188 C 494.289062 421.535156 498.46875 420.855469 503.871094 421.207031 C 509.257812 421.558594 513.308594 422.773438 516.027344 424.851562 C 518.738281 426.929688 519.980469 429.761719 519.746094 433.355469 C 519.511719 436.9375 517.914062 439.585938 514.957031 441.296875 C 511.992188 443.003906 507.816406 443.683594 502.429688 443.332031 C 497.027344 442.980469 492.972656 441.765625 490.257812 439.6875 C 487.542969 437.609375 486.300781 434.777344 486.535156 431.191406 "/>
<path fill-rule="nonzero" fill="var(--main-color)" fill-opacity="1" d="M 460.085938 894.136719 L 460.914062 877.121094 L 464.566406 877.296875 L 463.933594 890.34375 L 471.78125 890.726562 C 471.597656 890.089844 471.46875 889.453125 471.394531 888.820312 C 471.316406 888.183594 471.296875 887.550781 471.328125 886.917969 C 471.5 883.34375 472.617188 880.558594 474.679688 878.566406 C 476.742188 876.570312 479.445312 875.652344 482.792969 875.816406 C 486.238281 875.984375 488.867188 877.1875 490.675781 879.429688 C 492.480469 881.667969 493.285156 884.742188 493.097656 888.648438 C 493.03125 889.992188 492.851562 891.359375 492.554688 892.742188 C 492.257812 894.125 491.84375 895.546875 491.3125 897.011719 L 486.953125 896.800781 C 487.714844 895.546875 488.300781 894.242188 488.710938 892.886719 C 489.121094 891.53125 489.363281 890.085938 489.4375 888.558594 C 489.558594 886.082031 489.003906 884.089844 487.777344 882.585938 C 486.546875 881.074219 484.8125 880.265625 482.578125 880.15625 C 480.351562 880.046875 478.550781 880.6875 477.179688 882.070312 C 475.804688 883.449219 475.058594 885.375 474.9375 887.851562 C 474.878906 889.011719 474.953125 890.171875 475.152344 891.339844 C 475.351562 892.5 475.695312 893.695312 476.183594 894.917969 Z M 460.085938 894.136719 "/>
<path fill-rule="nonzero" fill="var(--main-color)" fill-opacity="1" d="M 478.722656 857.773438 C 478.621094 859.832031 479.09375 861.480469 480.140625 862.714844 C 481.183594 863.945312 482.671875 864.605469 484.597656 864.699219 C 486.53125 864.792969 488.078125 864.28125 489.238281 863.15625 C 490.398438 862.03125 491.027344 860.4375 491.128906 858.375 C 491.230469 856.316406 490.753906 854.664062 489.703125 853.425781 C 488.652344 852.183594 487.164062 851.511719 485.246094 851.417969 C 483.320312 851.324219 481.773438 851.84375 480.613281 852.96875 C 479.453125 854.09375 478.824219 855.691406 478.722656 857.773438 M 476.667969 862.015625 C 476.121094 863.851562 475.1875 865.257812 473.863281 866.234375 C 472.535156 867.207031 470.957031 867.648438 469.125 867.558594 C 466.566406 867.433594 464.585938 866.425781 463.1875 864.53125 C 461.789062 862.632812 461.164062 860.097656 461.320312 856.925781 C 461.476562 853.734375 462.339844 851.265625 463.917969 849.519531 C 465.496094 847.777344 467.5625 846.964844 470.121094 847.089844 C 471.953125 847.179688 473.480469 847.773438 474.707031 848.875 C 475.929688 849.972656 476.726562 851.453125 477.09375 853.320312 C 477.679688 851.257812 478.710938 849.679688 480.1875 848.585938 C 481.660156 847.488281 483.414062 846.988281 485.457031 847.085938 C 488.566406 847.238281 490.90625 848.300781 492.472656 850.277344 C 494.039062 852.253906 494.734375 855.007812 494.5625 858.542969 C 494.390625 862.074219 493.429688 864.746094 491.679688 866.566406 C 489.925781 868.378906 487.496094 869.210938 484.386719 869.058594 C 482.34375 868.960938 480.644531 868.289062 479.289062 867.050781 C 477.925781 865.804688 477.054688 864.125 476.667969 862.015625 M 469.746094 863.269531 C 471.402344 863.347656 472.722656 862.894531 473.703125 861.90625 C 474.679688 860.910156 475.21875 859.476562 475.308594 857.605469 C 475.398438 855.742188 475.003906 854.265625 474.128906 853.171875 C 473.25 852.070312 471.980469 851.484375 470.324219 851.402344 C 468.664062 851.320312 467.339844 851.785156 466.359375 852.792969 C 465.378906 853.796875 464.84375 855.226562 464.753906 857.089844 C 464.664062 858.964844 465.054688 860.441406 465.933594 861.527344 C 466.8125 862.605469 468.085938 863.1875 469.746094 863.269531 "/>
<path fill-rule="nonzero" fill="var(--main-color)" fill-opacity="1" d="M 349.183594 659.242188 L 353.710938 659.554688 L 353.332031 665 L 348.804688 664.6875 Z M 349.183594 659.242188 "/>
<path fill-rule="nonzero" fill="var(--main-color)" fill-opacity="1" d="M 365.039062 633.660156 L 382.03125 634.847656 L 381.777344 638.496094 L 368.746094 637.585938 L 368.199219 645.425781 C 368.84375 645.253906 369.480469 645.136719 370.113281 645.078125 C 370.75 645.015625 371.386719 645.007812 372.015625 645.050781 C 375.589844 645.300781 378.347656 646.476562 380.296875 648.578125 C 382.25 650.679688 383.109375 653.402344 382.875 656.746094 C 382.636719 660.1875 381.378906 662.789062 379.097656 664.550781 C 376.820312 666.308594 373.734375 667.050781 369.832031 666.78125 C 368.488281 666.6875 367.128906 666.476562 365.75 666.148438 C 364.375 665.824219 362.960938 665.382812 361.507812 664.820312 L 361.8125 660.464844 C 363.046875 661.253906 364.339844 661.867188 365.6875 662.308594 C 367.035156 662.746094 368.472656 663.019531 370 663.125 C 372.472656 663.296875 374.472656 662.785156 376.003906 661.585938 C 377.539062 660.390625 378.386719 658.675781 378.542969 656.441406 C 378.695312 654.214844 378.097656 652.402344 376.742188 651.003906 C 375.394531 649.601562 373.480469 648.8125 371.007812 648.640625 C 369.851562 648.558594 368.6875 648.605469 367.519531 648.78125 C 366.351562 648.957031 365.152344 649.277344 363.917969 649.738281 Z M 365.039062 633.660156 "/>
<path fill-rule="nonzero" fill="var(--main-color)" fill-opacity="1" d="M 401.003906 653.054688 C 398.945312 652.910156 397.289062 653.347656 396.03125 654.367188 C 394.78125 655.386719 394.085938 656.859375 393.953125 658.785156 C 393.816406 660.714844 394.300781 662.273438 395.398438 663.457031 C 396.5 664.640625 398.082031 665.304688 400.136719 665.449219 C 402.195312 665.589844 403.855469 665.152344 405.117188 664.125 C 406.382812 663.097656 407.082031 661.625 407.214844 659.710938 C 407.351562 657.785156 406.867188 656.230469 405.765625 655.046875 C 404.664062 653.863281 403.078125 653.199219 401.003906 653.054688 M 396.804688 650.914062 C 394.980469 650.328125 393.59375 649.363281 392.644531 648.019531 C 391.699219 646.671875 391.289062 645.082031 391.417969 643.253906 C 391.597656 640.699219 392.648438 638.742188 394.570312 637.382812 C 396.496094 636.023438 399.046875 635.453125 402.214844 635.675781 C 405.402344 635.898438 407.851562 636.816406 409.5625 638.425781 C 411.273438 640.039062 412.039062 642.125 411.863281 644.679688 C 411.734375 646.507812 411.109375 648.023438 409.980469 649.226562 C 408.859375 650.425781 407.359375 651.191406 405.484375 651.519531 C 407.535156 652.148438 409.09375 653.214844 410.15625 654.710938 C 411.222656 656.207031 411.6875 657.972656 411.542969 660.011719 C 411.328125 663.117188 410.214844 665.433594 408.207031 666.960938 C 406.199219 668.484375 403.429688 669.121094 399.898438 668.875 C 396.375 668.628906 393.71875 667.613281 391.9375 665.828125 C 390.160156 664.035156 389.382812 661.585938 389.597656 658.480469 C 389.738281 656.441406 390.445312 654.757812 391.714844 653.425781 C 392.988281 652.089844 394.683594 651.253906 396.804688 650.914062 M 395.695312 643.964844 C 395.582031 645.621094 396.007812 646.949219 396.976562 647.949219 C 397.949219 648.949219 399.371094 649.515625 401.242188 649.644531 C 403.101562 649.777344 404.585938 649.414062 405.699219 648.558594 C 406.816406 647.703125 407.433594 646.449219 407.546875 644.792969 C 407.664062 643.132812 407.226562 641.800781 406.242188 640.800781 C 405.257812 639.800781 403.835938 639.234375 401.976562 639.105469 C 400.105469 638.972656 398.621094 639.335938 397.515625 640.191406 C 396.417969 641.046875 395.8125 642.304688 395.695312 643.964844 "/>
<path fill-rule="nonzero" fill="var(--main-color)" fill-opacity="1" d="M 223.476562 94.03125 L 226.003906 97.796875 L 221.46875 100.839844 L 218.941406 97.070312 Z M 223.476562 94.03125 "/>
<path fill-rule="nonzero" fill="var(--main-color)" fill-opacity="1" d="M 248.425781 109.972656 C 249.210938 111.941406 249.347656 113.804688 248.828125 115.554688 C 248.3125 117.308594 247.199219 118.757812 245.488281 119.90625 C 242.859375 121.667969 240.21875 122.128906 237.5625 121.289062 C 234.914062 120.445312 232.46875 118.359375 230.234375 115.027344 C 229.488281 113.914062 228.828125 112.691406 228.253906 111.359375 C 227.679688 110.027344 227.191406 108.582031 226.789062 107.027344 L 230.265625 104.695312 C 230.351562 106.082031 230.644531 107.46875 231.144531 108.855469 C 231.648438 110.246094 232.332031 111.589844 233.203125 112.886719 C 234.71875 115.144531 236.316406 116.566406 238.003906 117.152344 C 239.6875 117.738281 241.378906 117.460938 243.082031 116.320312 C 244.652344 115.265625 245.511719 113.894531 245.65625 112.199219 C 245.804688 110.503906 245.222656 108.679688 243.90625 106.71875 L 241.824219 103.613281 L 244.789062 101.625 L 246.96875 104.871094 C 248.152344 106.640625 249.417969 107.761719 250.753906 108.226562 C 252.09375 108.691406 253.429688 108.476562 254.761719 107.582031 C 256.128906 106.664062 256.851562 105.476562 256.929688 104.015625 C 257.015625 102.558594 256.453125 100.921875 255.242188 99.113281 C 254.578125 98.125 253.757812 97.136719 252.78125 96.152344 C 251.8125 95.164062 250.644531 94.144531 249.289062 93.089844 L 252.496094 90.9375 C 253.796875 92.054688 254.941406 93.144531 255.933594 94.210938 C 256.925781 95.28125 257.777344 96.34375 258.488281 97.402344 C 260.324219 100.136719 261.152344 102.71875 260.976562 105.144531 C 260.804688 107.570312 259.660156 109.496094 257.542969 110.914062 C 256.066406 111.90625 254.539062 112.320312 252.953125 112.15625 C 251.371094 111.992188 249.863281 111.265625 248.425781 109.972656 "/>
<path fill-rule="nonzero" fill="var(--main-color)" fill-opacity="1" d="M 272.472656 126.074219 L 252.148438 126.515625 L 258.253906 135.613281 Z M 274.976562 123.019531 L 278.019531 127.554688 L 260.65625 139.199219 L 263.207031 143.003906 L 260.210938 145.011719 L 257.660156 141.210938 L 251.378906 145.425781 L 248.972656 141.839844 L 255.253906 137.625 L 247.1875 125.601562 L 250.664062 123.269531 Z M 274.976562 123.019531 "/>
<path fill-rule="nonzero" fill="var(--main-color)" fill-opacity="1" d="M 282.976562 469.597656 L 283.207031 465.066406 L 288.660156 465.347656 L 288.425781 469.878906 Z M 282.976562 469.597656 "/>
<path fill-rule="nonzero" fill="var(--main-color)" fill-opacity="1" d="M 271.90625 445.1875 C 271.808594 447.132812 272.394531 448.710938 273.667969 449.917969 C 274.9375 451.121094 276.730469 451.78125 279.046875 451.902344 C 281.347656 452.019531 283.199219 451.546875 284.597656 450.480469 C 285.992188 449.410156 286.742188 447.902344 286.839844 445.957031 C 286.941406 444.011719 286.351562 442.4375 285.074219 441.230469 C 283.792969 440.027344 282 439.367188 279.695312 439.246094 C 277.378906 439.128906 275.53125 439.601562 274.144531 440.667969 C 272.753906 441.734375 272.007812 443.242188 271.90625 445.1875 M 258.761719 435.886719 L 262.710938 436.089844 C 262.140625 437.152344 261.695312 438.230469 261.367188 439.324219 C 261.035156 440.417969 260.84375 441.507812 260.785156 442.597656 C 260.640625 445.460938 261.492188 447.695312 263.347656 449.304688 C 265.199219 450.910156 268.074219 451.921875 271.96875 452.335938 C 270.765625 451.429688 269.867188 450.324219 269.265625 449.015625 C 268.667969 447.707031 268.410156 446.285156 268.488281 444.757812 C 268.652344 441.539062 269.761719 439.046875 271.8125 437.28125 C 273.859375 435.511719 276.5625 434.714844 279.921875 434.886719 C 283.210938 435.058594 285.804688 436.164062 287.695312 438.214844 C 289.582031 440.261719 290.441406 442.902344 290.273438 446.132812 C 290.082031 449.839844 288.519531 452.601562 285.582031 454.414062 C 282.636719 456.226562 278.46875 456.992188 273.078125 456.714844 C 268.015625 456.457031 264.039062 455.046875 261.152344 452.488281 C 258.261719 449.929688 256.921875 446.628906 257.132812 442.582031 C 257.1875 441.492188 257.351562 440.398438 257.625 439.304688 C 257.894531 438.207031 258.277344 437.066406 258.761719 435.886719 "/>
<path fill-rule="nonzero" fill="var(--main-color)" fill-opacity="1" d="M 275.84375 417.902344 C 275.738281 419.960938 276.207031 421.609375 277.25 422.847656 C 278.292969 424.082031 279.777344 424.75 281.703125 424.847656 C 283.636719 424.945312 285.183594 424.4375 286.347656 423.316406 C 287.511719 422.191406 288.144531 420.601562 288.25 418.542969 C 288.359375 416.480469 287.886719 414.832031 286.839844 413.585938 C 285.789062 412.339844 284.304688 411.667969 282.386719 411.570312 C 280.460938 411.46875 278.914062 411.980469 277.75 413.105469 C 276.585938 414.226562 275.953125 415.824219 275.84375 417.902344 M 273.78125 422.140625 C 273.230469 423.976562 272.289062 425.378906 270.964844 426.351562 C 269.632812 427.320312 268.050781 427.757812 266.222656 427.664062 C 263.664062 427.535156 261.6875 426.519531 260.292969 424.621094 C 258.898438 422.71875 258.285156 420.179688 258.445312 417.007812 C 258.609375 413.816406 259.484375 411.351562 261.066406 409.609375 C 262.644531 407.871094 264.714844 407.066406 267.273438 407.199219 C 269.105469 407.292969 270.632812 407.890625 271.855469 408.996094 C 273.074219 410.097656 273.867188 411.582031 274.230469 413.449219 C 274.820312 411.386719 275.859375 409.808594 277.335938 408.71875 C 278.8125 407.625 280.570312 407.132812 282.609375 407.234375 C 285.71875 407.394531 288.054688 408.464844 289.617188 410.445312 C 291.179688 412.425781 291.867188 415.183594 291.683594 418.71875 C 291.503906 422.246094 290.535156 424.917969 288.78125 426.734375 C 287.019531 428.542969 284.589844 429.367188 281.480469 429.207031 C 279.4375 429.101562 277.742188 428.425781 276.386719 427.183594 C 275.027344 425.933594 274.160156 424.253906 273.78125 422.140625 M 266.855469 423.375 C 268.511719 423.460938 269.832031 423.007812 270.8125 422.023438 C 271.796875 421.03125 272.335938 419.597656 272.433594 417.726562 C 272.527344 415.863281 272.140625 414.386719 271.261719 413.289062 C 270.386719 412.1875 269.121094 411.59375 267.464844 411.511719 C 265.804688 411.425781 264.480469 411.882812 263.5 412.890625 C 262.515625 413.890625 261.976562 415.320312 261.878906 417.183594 C 261.785156 419.054688 262.171875 420.535156 263.050781 421.621094 C 263.925781 422.703125 265.195312 423.289062 266.855469 423.375 "/>
<path fill-rule="nonzero" fill="var(--main-color)" fill-opacity="1" d="M 16.636719 147.019531 L 20.351562 144.417969 L 23.484375 148.886719 L 19.769531 151.492188 Z M 16.636719 147.019531 "/>
<path fill-rule="nonzero" fill="var(--main-color)" fill-opacity="1" d="M 29.746094 140.042969 L 35.550781 135.972656 L 21.503906 115.929688 L 16.074219 121.625 L 13.808594 118.386719 L 19.203125 112.714844 L 22.753906 110.226562 L 39.070312 133.507812 L 44.875 129.441406 L 46.96875 132.429688 L 31.839844 143.03125 Z M 29.746094 140.042969 "/>
<path fill-rule="nonzero" fill="var(--main-color)" fill-opacity="1" d="M 55.113281 122.261719 L 67.519531 113.570312 L 69.613281 116.5625 L 52.9375 128.246094 L 50.84375 125.257812 C 51.210938 122.917969 51.734375 119.757812 52.414062 115.777344 C 53.097656 111.789062 53.496094 109.246094 53.617188 108.144531 C 53.859375 106.070312 53.894531 104.433594 53.722656 103.230469 C 53.558594 102.027344 53.175781 100.996094 52.574219 100.140625 C 51.597656 98.746094 50.308594 97.953125 48.714844 97.761719 C 47.117188 97.566406 45.53125 98.019531 43.957031 99.121094 C 42.84375 99.902344 41.804688 100.917969 40.835938 102.175781 C 39.871094 103.425781 38.960938 104.9375 38.105469 106.714844 L 35.589844 103.121094 C 36.617188 101.546875 37.648438 100.175781 38.6875 99.011719 C 39.726562 97.847656 40.765625 96.902344 41.796875 96.179688 C 44.515625 94.269531 47.164062 93.433594 49.738281 93.660156 C 52.304688 93.886719 54.386719 95.136719 55.984375 97.410156 C 56.738281 98.492188 57.253906 99.65625 57.527344 100.910156 C 57.804688 102.15625 57.867188 103.8125 57.71875 105.875 C 57.664062 106.421875 57.417969 108.058594 56.984375 110.785156 C 56.554688 113.511719 55.933594 117.335938 55.113281 122.261719 "/>
<path fill-rule="nonzero" fill="var(--main-color)" fill-opacity="1" d="M 374.5 163.859375 L 379.03125 164.097656 L 378.742188 169.550781 L 374.210938 169.308594 Z M 374.5 163.859375 "/>
<path fill-rule="nonzero" fill="var(--main-color)" fill-opacity="1" d="M 392.105469 166.601562 L 407.230469 167.402344 L 407.035156 171.050781 L 386.699219 169.972656 L 386.894531 166.324219 C 388.625 164.710938 390.988281 162.546875 393.976562 159.832031 C 396.972656 157.109375 398.855469 155.355469 399.625 154.558594 C 401.097656 153.078125 402.132812 151.8125 402.742188 150.757812 C 403.351562 149.707031 403.683594 148.660156 403.738281 147.617188 C 403.832031 145.914062 403.304688 144.496094 402.167969 143.363281 C 401.03125 142.222656 399.503906 141.605469 397.585938 141.5 C 396.226562 141.429688 394.777344 141.589844 393.242188 141.980469 C 391.710938 142.371094 390.0625 143.003906 388.296875 143.875 L 388.527344 139.492188 C 390.308594 138.886719 391.96875 138.445312 393.5 138.167969 C 395.039062 137.890625 396.4375 137.785156 397.695312 137.851562 C 401.015625 138.027344 403.617188 139 405.5 140.765625 C 407.386719 142.527344 408.253906 144.792969 408.109375 147.566406 C 408.039062 148.886719 407.722656 150.121094 407.167969 151.277344 C 406.617188 152.425781 405.644531 153.769531 404.253906 155.300781 C 403.875 155.699219 402.675781 156.835938 400.652344 158.71875 C 398.632812 160.597656 395.785156 163.226562 392.105469 166.601562 "/>
<path fill-rule="nonzero" fill="var(--main-color)" fill-opacity="1" d="M 426.945312 142.84375 C 424.714844 142.726562 422.980469 143.734375 421.738281 145.871094 C 420.5 148.007812 419.765625 151.277344 419.53125 155.683594 C 419.300781 160.074219 419.6875 163.394531 420.691406 165.652344 C 421.699219 167.910156 423.320312 169.097656 425.546875 169.214844 C 427.796875 169.332031 429.539062 168.324219 430.777344 166.1875 C 432.019531 164.050781 432.753906 160.785156 432.988281 156.398438 C 433.222656 151.988281 432.832031 148.660156 431.824219 146.40625 C 430.820312 144.152344 429.191406 142.964844 426.945312 142.84375 M 427.128906 139.410156 C 430.71875 139.601562 433.390625 141.167969 435.132812 144.109375 C 436.878906 147.050781 437.605469 151.222656 437.320312 156.625 C 437.035156 162.019531 435.867188 166.085938 433.824219 168.828125 C 431.777344 171.5625 428.960938 172.835938 425.367188 172.648438 C 421.777344 172.457031 419.113281 170.894531 417.367188 167.953125 C 415.621094 165.011719 414.894531 160.84375 415.179688 155.453125 C 415.464844 150.046875 416.632812 145.976562 418.675781 143.238281 C 420.722656 140.496094 423.539062 139.222656 427.128906 139.410156 "/>
<path fill-rule="nonzero" fill="var(--main-color)" fill-opacity="1" d="M 1008.707031 764.21875 L 1010.222656 768.492188 L 1005.082031 770.320312 L 1003.5625 766.042969 Z M 1008.707031 764.21875 "/>
<path fill-rule="nonzero" fill="var(--main-color)" fill-opacity="1" d="M 1038.882812 778.191406 C 1038.136719 776.089844 1036.535156 774.875 1034.085938 774.546875 C 1031.640625 774.226562 1028.339844 774.800781 1024.179688 776.277344 C 1020.039062 777.75 1017.117188 779.382812 1015.421875 781.175781 C 1013.726562 782.976562 1013.25 784.925781 1013.996094 787.03125 C 1014.75 789.152344 1016.351562 790.371094 1018.800781 790.695312 C 1021.25 791.019531 1024.546875 790.449219 1028.691406 788.976562 C 1032.847656 787.5 1035.773438 785.863281 1037.464844 784.066406 C 1039.164062 782.269531 1039.636719 780.3125 1038.882812 778.191406 M 1042.121094 777.042969 C 1043.324219 780.433594 1042.902344 783.5 1040.855469 786.238281 C 1038.8125 788.976562 1035.242188 791.253906 1030.140625 793.066406 C 1025.054688 794.871094 1020.851562 795.355469 1017.535156 794.523438 C 1014.222656 793.683594 1011.960938 791.570312 1010.757812 788.179688 C 1009.554688 784.792969 1009.976562 781.730469 1012.019531 778.992188 C 1014.066406 776.253906 1017.632812 773.976562 1022.722656 772.171875 C 1027.824219 770.359375 1032.03125 769.871094 1035.34375 770.710938 C 1038.660156 771.546875 1040.917969 773.65625 1042.121094 777.042969 "/>
<path fill-rule="nonzero" fill="var(--main-color)" fill-opacity="1" d="M 1047.855469 794.914062 L 1053.558594 810.96875 L 1050.109375 812.191406 L 1045.738281 799.882812 L 1038.332031 802.511719 C 1038.746094 803.035156 1039.109375 803.570312 1039.417969 804.128906 C 1039.730469 804.6875 1039.988281 805.265625 1040.203125 805.863281 C 1041.398438 809.234375 1041.425781 812.234375 1040.273438 814.863281 C 1039.128906 817.492188 1036.976562 819.367188 1033.816406 820.488281 C 1030.566406 821.644531 1027.675781 821.527344 1025.152344 820.144531 C 1022.632812 818.757812 1020.71875 816.222656 1019.410156 812.539062 C 1018.957031 811.269531 1018.605469 809.9375 1018.355469 808.542969 C 1018.105469 807.152344 1017.945312 805.679688 1017.878906 804.125 L 1021.992188 802.664062 C 1021.761719 804.109375 1021.714844 805.539062 1021.851562 806.949219 C 1021.988281 808.363281 1022.3125 809.789062 1022.824219 811.230469 C 1023.65625 813.566406 1024.925781 815.199219 1026.636719 816.125 C 1028.347656 817.050781 1030.253906 817.144531 1032.363281 816.394531 C 1034.46875 815.648438 1035.890625 814.375 1036.632812 812.574219 C 1037.378906 810.777344 1037.339844 808.707031 1036.507812 806.371094 C 1036.121094 805.277344 1035.613281 804.230469 1034.984375 803.230469 C 1034.355469 802.230469 1033.585938 801.257812 1032.667969 800.308594 Z M 1047.855469 794.914062 "/>
<path fill-rule="nonzero" fill="var(--main-color)" fill-opacity="1" d="M 870.082031 360.171875 L 871.5625 364.460938 L 866.402344 366.242188 L 864.921875 361.953125 Z M 870.082031 360.171875 "/>
<path fill-rule="nonzero" fill="var(--main-color)" fill-opacity="1" d="M 890.128906 381.960938 C 890.386719 384.070312 890.039062 385.902344 889.089844 387.460938 C 888.144531 389.023438 886.699219 390.144531 884.75 390.816406 C 881.757812 391.847656 879.089844 391.617188 876.734375 390.125 C 874.386719 388.632812 872.558594 385.992188 871.25 382.203125 C 870.8125 380.933594 870.488281 379.578125 870.273438 378.144531 C 870.058594 376.710938 869.957031 375.191406 869.964844 373.582031 L 873.921875 372.21875 C 873.648438 373.582031 873.578125 374.996094 873.707031 376.464844 C 873.835938 377.9375 874.15625 379.414062 874.667969 380.890625 C 875.554688 383.460938 876.738281 385.242188 878.214844 386.242188 C 879.695312 387.238281 881.402344 387.402344 883.339844 386.734375 C 885.128906 386.117188 886.308594 385.007812 886.882812 383.410156 C 887.460938 381.808594 887.363281 379.894531 886.59375 377.660156 L 885.375 374.125 L 888.746094 372.960938 L 890.023438 376.660156 C 890.71875 378.675781 891.652344 380.078125 892.828125 380.871094 C 894.003906 381.660156 895.351562 381.796875 896.867188 381.273438 C 898.421875 380.734375 899.425781 379.773438 899.875 378.378906 C 900.332031 376.992188 900.203125 375.265625 899.492188 373.210938 C 899.105469 372.082031 898.566406 370.917969 897.875 369.71875 C 897.1875 368.515625 896.320312 367.230469 895.277344 365.863281 L 898.929688 364.601562 C 899.902344 366.011719 900.730469 367.359375 901.417969 368.648438 C 902.105469 369.933594 902.65625 371.175781 903.070312 372.382812 C 904.144531 375.496094 904.289062 378.203125 903.496094 380.503906 C 902.710938 382.808594 901.113281 384.375 898.703125 385.207031 C 897.023438 385.785156 895.4375 385.796875 893.949219 385.234375 C 892.460938 384.671875 891.1875 383.578125 890.128906 381.960938 "/>
<path fill-rule="nonzero" fill="var(--main-color)" fill-opacity="1" d="M 909.269531 400.875 C 908.539062 398.765625 906.953125 397.535156 904.503906 397.1875 C 902.0625 396.84375 898.757812 397.390625 894.585938 398.832031 C 890.429688 400.265625 887.496094 401.871094 885.78125 403.652344 C 884.070312 405.433594 883.578125 407.382812 884.308594 409.492188 C 885.042969 411.617188 886.632812 412.855469 889.078125 413.199219 C 891.523438 413.546875 894.828125 413.003906 898.980469 411.570312 C 903.152344 410.128906 906.09375 408.515625 907.800781 406.734375 C 909.511719 404.957031 910.003906 403.003906 909.269531 400.875 M 912.519531 399.753906 C 913.691406 403.15625 913.242188 406.214844 911.171875 408.9375 C 909.105469 411.660156 905.511719 413.902344 900.398438 415.667969 C 895.292969 417.429688 891.085938 417.878906 887.777344 417.015625 C 884.472656 416.148438 882.230469 414.015625 881.058594 410.613281 C 879.886719 407.214844 880.332031 404.15625 882.398438 401.4375 C 884.472656 398.714844 888.058594 396.472656 893.164062 394.710938 C 898.277344 392.945312 902.488281 392.496094 905.796875 393.359375 C 909.105469 394.226562 911.347656 396.355469 912.519531 399.753906 "/>
<path fill-rule="nonzero" fill="var(--main-color)" fill-opacity="1" d="M 992.847656 249.101562 L 997.003906 247.28125 L 999.195312 252.28125 L 995.039062 254.101562 Z M 992.847656 249.101562 "/>
<path fill-rule="nonzero" fill="var(--main-color)" fill-opacity="1" d="M 1009.8125 243.644531 L 1023.683594 237.566406 L 1025.148438 240.910156 L 1006.496094 249.082031 L 1005.03125 245.738281 C 1005.855469 243.515625 1006.992188 240.519531 1008.445312 236.753906 C 1009.898438 232.980469 1010.792969 230.5625 1011.125 229.507812 C 1011.769531 227.523438 1012.128906 225.925781 1012.199219 224.710938 C 1012.273438 223.5 1012.101562 222.414062 1011.679688 221.457031 C 1010.996094 219.894531 1009.890625 218.863281 1008.367188 218.359375 C 1006.835938 217.855469 1005.195312 217.984375 1003.433594 218.757812 C 1002.1875 219.304688 1000.96875 220.09375 999.769531 221.136719 C 998.578125 222.171875 997.390625 223.476562 996.203125 225.046875 L 994.441406 221.03125 C 995.757812 219.6875 997.042969 218.546875 998.289062 217.613281 C 999.539062 216.671875 1000.742188 215.953125 1001.894531 215.445312 C 1004.9375 214.113281 1007.699219 213.8125 1010.175781 214.542969 C 1012.652344 215.269531 1014.445312 216.90625 1015.558594 219.449219 C 1016.089844 220.660156 1016.367188 221.902344 1016.386719 223.1875 C 1016.410156 224.460938 1016.144531 226.097656 1015.59375 228.089844 C 1015.433594 228.617188 1014.871094 230.171875 1013.910156 232.761719 C 1012.949219 235.347656 1011.585938 238.976562 1009.8125 243.644531 "/>
<path fill-rule="nonzero" fill="var(--main-color)" fill-opacity="1" d="M 1033.0625 206.550781 L 1029.898438 226.632812 L 1039.9375 222.238281 Z M 1030.5 203.546875 L 1035.5 201.355469 L 1043.890625 220.503906 L 1048.085938 218.667969 L 1049.53125 221.972656 L 1045.339844 223.8125 L 1048.375 230.738281 L 1044.417969 232.46875 L 1041.382812 225.542969 L 1028.121094 231.351562 L 1026.441406 227.519531 Z M 1030.5 203.546875 "/>
<path fill-rule="nonzero" fill="var(--main-color)" fill-opacity="1" d="M 815 196.621094 L 816.105469 201.023438 L 810.8125 202.355469 L 809.703125 197.957031 Z M 815 196.621094 "/>
<path fill-rule="nonzero" fill="var(--main-color)" fill-opacity="1" d="M 843.722656 213.382812 C 843.175781 211.214844 841.699219 209.855469 839.292969 209.300781 C 836.886719 208.746094 833.546875 209.011719 829.265625 210.089844 C 825.003906 211.164062 821.941406 212.511719 820.085938 214.140625 C 818.226562 215.769531 817.570312 217.667969 818.113281 219.832031 C 818.664062 222.015625 820.144531 223.378906 822.550781 223.933594 C 824.960938 224.488281 828.296875 224.230469 832.558594 223.15625 C 836.835938 222.078125 839.90625 220.722656 841.757812 219.09375 C 843.617188 217.46875 844.273438 215.5625 843.722656 213.382812 M 847.054688 212.542969 C 847.933594 216.03125 847.226562 219.042969 844.929688 221.578125 C 842.636719 224.113281 838.867188 226.039062 833.617188 227.363281 C 828.382812 228.679688 824.152344 228.769531 820.929688 227.625 C 817.710938 226.476562 815.660156 224.160156 814.78125 220.671875 C 813.902344 217.1875 814.609375 214.175781 816.902344 211.644531 C 819.199219 209.109375 822.964844 207.179688 828.203125 205.863281 C 833.449219 204.539062 837.683594 204.453125 840.902344 205.597656 C 844.128906 206.742188 846.175781 209.058594 847.054688 212.542969 "/>
<path fill-rule="nonzero" fill="var(--main-color)" fill-opacity="1" d="M 823.683594 238.507812 L 825.414062 245.378906 L 849.148438 239.402344 L 845.765625 232.296875 L 849.597656 231.332031 L 852.972656 238.394531 L 854.03125 242.601562 L 826.464844 249.546875 L 828.195312 256.417969 L 824.65625 257.3125 L 820.144531 239.398438 Z M 823.683594 238.507812 "/>
<g clip-path="url(#clip-2)">
<g clip-path="url(#clip-3)">
<path fill-rule="nonzero" fill="var(--main-color)" fill-opacity="1" d="M 811.105469 63.0625 L 811.015625 67.597656 L 805.554688 67.488281 L 805.648438 62.949219 Z M 811.105469 63.0625 "/>
</g>
</g>
<g clip-path="url(#clip-4)">
<g clip-path="url(#clip-5)">
<path fill-rule="nonzero" fill="var(--main-color)" fill-opacity="1" d="M 809 77.761719 L 808.855469 84.851562 L 833.328125 85.34375 L 831.9375 77.601562 L 835.886719 77.679688 L 837.28125 85.382812 L 837.191406 89.71875 L 808.769531 89.144531 L 808.628906 96.234375 L 804.976562 96.160156 L 805.351562 77.691406 Z M 809 77.761719 "/>
</g>
</g>
<g clip-path="url(#clip-6)">
<g clip-path="url(#clip-7)">
<path fill-rule="nonzero" fill="var(--main-color)" fill-opacity="1" d="M 822.363281 115.101562 C 822.402344 113.15625 821.765625 111.597656 820.457031 110.429688 C 819.152344 109.265625 817.339844 108.660156 815.019531 108.613281 C 812.714844 108.570312 810.878906 109.101562 809.515625 110.210938 C 808.152344 111.324219 807.453125 112.855469 807.414062 114.800781 C 807.375 116.75 808.011719 118.304688 809.328125 119.46875 C 810.648438 120.632812 812.460938 121.238281 814.765625 121.28125 C 817.082031 121.328125 818.917969 120.796875 820.269531 119.6875 C 821.625 118.578125 822.324219 117.050781 822.363281 115.101562 M 835.792969 123.992188 L 831.839844 123.910156 C 832.375 122.832031 832.789062 121.738281 833.082031 120.636719 C 833.378906 119.53125 833.539062 118.433594 833.5625 117.34375 C 833.621094 114.480469 832.695312 112.273438 830.792969 110.722656 C 828.890625 109.175781 825.984375 108.253906 822.082031 107.960938 C 823.3125 108.828125 824.246094 109.90625 824.882812 111.191406 C 825.523438 112.484375 825.828125 113.894531 825.796875 115.425781 C 825.730469 118.648438 824.699219 121.175781 822.707031 123.003906 C 820.714844 124.835938 818.039062 125.714844 814.675781 125.648438 C 811.382812 125.582031 808.757812 124.554688 806.804688 122.566406 C 804.855469 120.578125 803.910156 117.96875 803.976562 114.730469 C 804.050781 111.019531 805.53125 108.210938 808.410156 106.308594 C 811.296875 104.40625 815.4375 103.507812 820.835938 103.617188 C 825.902344 103.71875 829.921875 105.003906 832.886719 107.46875 C 835.855469 109.9375 837.296875 113.195312 837.214844 117.246094 C 837.191406 118.335938 837.0625 119.433594 836.824219 120.539062 C 836.585938 121.644531 836.242188 122.792969 835.792969 123.992188 "/>
</g>
</g>
<path fill-rule="nonzero" fill="var(--main-color)" fill-opacity="1" d="M 897.785156 46.847656 L 902.183594 45.730469 L 903.53125 51.019531 L 899.132812 52.136719 Z M 897.785156 46.847656 "/>
<path fill-rule="nonzero" fill="var(--main-color)" fill-opacity="1" d="M 904.824219 17.589844 L 921.335938 13.390625 L 922.238281 16.933594 L 909.578125 20.152344 L 911.515625 27.769531 C 912.070312 27.40625 912.640625 27.097656 913.222656 26.839844 C 913.808594 26.582031 914.410156 26.375 915.023438 26.21875 C 918.492188 25.335938 921.480469 25.585938 923.988281 26.972656 C 926.503906 28.355469 928.171875 30.671875 929 33.921875 C 929.851562 37.265625 929.46875 40.128906 927.859375 42.515625 C 926.246094 44.898438 923.546875 46.574219 919.757812 47.535156 C 918.453125 47.867188 917.09375 48.097656 915.683594 48.21875 C 914.273438 48.339844 912.792969 48.363281 911.238281 48.285156 L 910.160156 44.054688 C 911.582031 44.417969 913 44.59375 914.417969 44.589844 C 915.835938 44.582031 917.285156 44.390625 918.769531 44.015625 C 921.171875 43.402344 922.914062 42.289062 923.992188 40.671875 C 925.074219 39.050781 925.339844 37.160156 924.789062 34.992188 C 924.238281 32.828125 923.101562 31.292969 921.375 30.390625 C 919.65625 29.480469 917.59375 29.332031 915.1875 29.941406 C 914.066406 30.226562 912.976562 30.636719 911.917969 31.171875 C 910.867188 31.703125 909.828125 32.382812 908.796875 33.207031 Z M 904.824219 17.589844 "/>
<path fill-rule="nonzero" fill="var(--main-color)" fill-opacity="1" d="M 939.648438 38.0625 L 946.519531 36.316406 L 940.484375 12.597656 L 933.390625 15.996094 L 932.417969 12.167969 L 939.46875 8.773438 L 943.675781 7.707031 L 950.683594 35.257812 L 957.554688 33.507812 L 958.453125 37.046875 L 940.550781 41.601562 Z M 939.648438 38.0625 "/>
<path fill-rule="nonzero" fill="var(--main-color)" fill-opacity="1" d="M 646.925781 176.0625 L 651.460938 176.242188 L 651.246094 181.695312 L 646.714844 181.519531 Z M 646.925781 176.0625 "/>
<path fill-rule="nonzero" fill="var(--main-color)" fill-opacity="1" d="M 671.105469 153.230469 C 668.875 153.144531 667.152344 154.179688 665.941406 156.332031 C 664.734375 158.480469 664.042969 161.761719 663.871094 166.171875 C 663.699219 170.566406 664.132812 173.882812 665.167969 176.125 C 666.207031 178.367188 667.84375 179.53125 670.074219 179.617188 C 672.320312 179.707031 674.050781 178.671875 675.257812 176.519531 C 676.472656 174.363281 677.164062 171.089844 677.335938 166.699219 C 677.507812 162.289062 677.074219 158.964844 676.03125 156.726562 C 674.996094 154.484375 673.355469 153.320312 671.105469 153.230469 M 671.238281 149.796875 C 674.835938 149.9375 677.523438 151.46875 679.308594 154.386719 C 681.09375 157.300781 681.882812 161.460938 681.671875 166.867188 C 681.460938 172.265625 680.351562 176.347656 678.34375 179.117188 C 676.335938 181.882812 673.535156 183.195312 669.9375 183.054688 C 666.347656 182.914062 663.660156 181.386719 661.875 178.472656 C 660.089844 175.554688 659.304688 171.398438 659.515625 166.003906 C 659.726562 160.59375 660.835938 156.507812 662.84375 153.742188 C 664.851562 150.972656 667.648438 149.65625 671.238281 149.796875 "/>
<path fill-rule="nonzero" fill="var(--main-color)" fill-opacity="1" d="M 699.078125 154.324219 C 696.847656 154.238281 695.125 155.273438 693.914062 157.425781 C 692.707031 159.578125 692.015625 162.855469 691.84375 167.265625 C 691.671875 171.660156 692.105469 174.976562 693.140625 177.21875 C 694.179688 179.460938 695.816406 180.625 698.046875 180.710938 C 700.296875 180.800781 702.023438 179.765625 703.230469 177.613281 C 704.445312 175.457031 705.136719 172.183594 705.308594 167.792969 C 705.480469 163.382812 705.046875 160.058594 704.003906 157.820312 C 702.96875 155.578125 701.328125 154.414062 699.078125 154.324219 M 699.210938 150.890625 C 702.808594 151.03125 705.496094 152.5625 707.28125 155.480469 C 709.066406 158.394531 709.855469 162.554688 709.644531 167.964844 C 709.433594 173.359375 708.324219 177.441406 706.316406 180.210938 C 704.308594 182.976562 701.507812 184.289062 697.910156 184.148438 C 694.320312 184.007812 691.632812 182.480469 689.847656 179.566406 C 688.0625 176.648438 687.277344 172.492188 687.488281 167.097656 C 687.699219 161.6875 688.808594 157.601562 690.816406 154.835938 C 692.824219 152.066406 695.621094 150.75 699.210938 150.890625 "/>
<path fill-rule="nonzero" fill="var(--main-color)" fill-opacity="1" d="M 741.257812 659.535156 C 739.027344 659.449219 737.304688 660.480469 736.09375 662.636719 C 734.882812 664.785156 734.195312 668.066406 734.023438 672.476562 C 733.851562 676.867188 734.28125 680.183594 735.316406 682.425781 C 736.359375 684.667969 737.996094 685.835938 740.226562 685.921875 C 742.472656 686.007812 744.203125 684.976562 745.410156 682.820312 C 746.621094 680.667969 747.316406 677.394531 747.488281 673.003906 C 747.660156 668.589844 747.226562 665.269531 746.183594 663.03125 C 745.148438 660.789062 743.503906 659.621094 741.257812 659.535156 M 741.390625 656.101562 C 744.988281 656.242188 747.675781 657.769531 749.460938 660.6875 C 751.246094 663.601562 752.03125 667.761719 751.820312 673.171875 C 751.609375 678.566406 750.5 682.648438 748.492188 685.417969 C 746.488281 688.183594 743.6875 689.496094 740.089844 689.355469 C 736.5 689.214844 733.8125 687.6875 732.027344 684.773438 C 730.242188 681.855469 729.457031 677.699219 729.667969 672.304688 C 729.878906 666.894531 730.988281 662.808594 732.996094 660.042969 C 735 657.273438 737.800781 655.960938 741.390625 656.101562 "/>
<g clip-path="url(#clip-8)">
<g clip-path="url(#clip-9)">
<path fill-rule="nonzero" fill="var(--main-color)" fill-opacity="1" d="M 537.085938 102.738281 L 537.378906 98.210938 L 542.828125 98.5625 L 542.535156 103.089844 Z M 537.085938 102.738281 "/>
</g>
</g>
<g clip-path="url(#clip-10)">
<g clip-path="url(#clip-11)">
<path fill-rule="nonzero" fill="var(--main-color)" fill-opacity="1" d="M 514.875 77.992188 C 514.730469 80.21875 515.71875 81.964844 517.84375 83.234375 C 519.960938 84.496094 523.222656 85.265625 527.628906 85.550781 C 532.015625 85.835938 535.339844 85.484375 537.609375 84.507812 C 539.878906 83.523438 541.082031 81.917969 541.226562 79.691406 C 541.371094 77.445312 540.382812 75.691406 538.257812 74.429688 C 536.136719 73.160156 532.882812 72.386719 528.496094 72.105469 C 524.089844 71.820312 520.757812 72.171875 518.492188 73.152344 C 516.226562 74.132812 515.019531 75.746094 514.875 77.992188 M 511.445312 77.769531 C 511.675781 74.179688 513.273438 71.527344 516.234375 69.820312 C 519.191406 68.109375 523.371094 67.425781 528.773438 67.773438 C 534.164062 68.121094 538.214844 69.335938 540.933594 71.410156 C 543.648438 73.488281 544.886719 76.320312 544.65625 79.910156 C 544.425781 83.496094 542.832031 86.144531 539.875 87.855469 C 536.910156 89.566406 532.734375 90.25 527.347656 89.902344 C 521.945312 89.554688 517.886719 88.339844 515.175781 86.265625 C 512.457031 84.1875 511.210938 81.355469 511.445312 77.769531 "/>
</g>
</g>
<g clip-path="url(#clip-12)">
<g clip-path="url(#clip-13)">
<path fill-rule="nonzero" fill="var(--main-color)" fill-opacity="1" d="M 516.675781 50.054688 C 516.53125 52.28125 517.523438 54.03125 519.644531 55.296875 C 521.761719 56.558594 525.023438 57.332031 529.429688 57.617188 C 533.816406 57.898438 537.144531 57.550781 539.410156 56.570312 C 541.679688 55.585938 542.882812 53.980469 543.027344 51.753906 C 543.171875 49.507812 542.183594 47.753906 540.0625 46.492188 C 537.9375 45.226562 534.683594 44.449219 530.296875 44.167969 C 525.890625 43.882812 522.558594 44.234375 520.292969 45.21875 C 518.027344 46.195312 516.820312 47.808594 516.675781 50.054688 M 513.246094 49.832031 C 513.476562 46.242188 515.074219 43.59375 518.035156 41.882812 C 520.996094 40.171875 525.175781 39.492188 530.574219 39.839844 C 535.964844 40.1875 540.015625 41.398438 542.734375 43.476562 C 545.449219 45.550781 546.691406 48.386719 546.457031 51.976562 C 546.226562 55.5625 544.632812 58.210938 541.675781 59.921875 C 538.710938 61.632812 534.535156 62.3125 529.148438 61.964844 C 523.746094 61.617188 519.691406 60.402344 516.976562 58.328125 C 514.257812 56.25 513.015625 53.417969 513.246094 49.832031 "/>
</g>
</g>
<path fill-rule="nonzero" fill="var(--main-color)" fill-opacity="1" d="M 933.402344 534.203125 C 933.402344 536.859375 932.558594 538.828125 930.871094 540.109375 C 929.183594 541.382812 926.625 542.015625 923.199219 542.015625 C 920.769531 542.015625 918.308594 541.46875 915.808594 540.375 L 916.886719 534.421875 L 918.074219 534.421875 L 918.527344 538.03125 C 918.984375 538.523438 919.628906 538.960938 920.464844 539.34375 C 921.296875 539.730469 922.238281 539.921875 923.292969 539.921875 C 927.144531 539.921875 929.074219 538.351562 929.074219 535.203125 C 929.074219 534.171875 928.660156 533.257812 927.839844 532.453125 C 927.027344 531.640625 925.699219 530.78125 923.855469 529.875 C 922.074219 529.023438 920.75 528.074219 919.886719 527.03125 C 919.03125 525.980469 918.605469 524.75 918.605469 523.34375 C 918.605469 521.023438 919.386719 519.226562 920.949219 517.953125 C 922.511719 516.683594 924.683594 516.046875 927.464844 516.046875 C 929.453125 516.046875 931.808594 516.355469 934.527344 516.96875 L 933.558594 522.46875 L 932.324219 522.46875 L 931.949219 519.625 C 930.84375 518.648438 929.386719 518.15625 927.574219 518.15625 C 926.125 518.15625 924.96875 518.484375 924.105469 519.140625 C 923.25 519.796875 922.824219 520.820312 922.824219 522.203125 C 922.824219 523.164062 923.191406 524 923.933594 524.71875 C 924.671875 525.4375 926.066406 526.324219 928.121094 527.375 C 929.953125 528.324219 931.292969 529.34375 932.136719 530.4375 C 932.980469 531.53125 933.402344 532.789062 933.402344 534.203125 Z M 933.402344 534.203125 "/>
<path fill-rule="nonzero" fill="var(--main-color)" fill-opacity="1" d="M 943.308594 536.890625 C 943.308594 537.683594 943.5 538.277344 943.886719 538.671875 C 944.28125 539.070312 944.792969 539.265625 945.417969 539.265625 C 946.699219 539.265625 948.03125 539.007812 949.417969 538.484375 L 949.964844 539.71875 C 947.808594 541.25 945.621094 542.015625 943.402344 542.015625 C 942.015625 542.015625 940.921875 541.59375 940.121094 540.75 C 939.316406 539.90625 938.917969 538.730469 938.917969 537.21875 C 938.917969 536.710938 938.964844 536.105469 939.058594 535.40625 C 939.160156 534.710938 940.125 529.210938 941.949219 518.90625 L 938.714844 518.90625 L 938.917969 517.734375 L 942.433594 516.703125 L 946.042969 511.078125 L 947.730469 511.078125 L 946.761719 516.703125 L 952.417969 516.703125 L 951.996094 518.90625 L 946.339844 518.90625 L 943.777344 533.390625 C 943.464844 535.007812 943.308594 536.171875 943.308594 536.890625 Z M 943.308594 536.890625 "/>
<path fill-rule="nonzero" fill="var(--main-color)" fill-opacity="1" d="M 972.226562 539.640625 L 975.210938 540.296875 L 975.007812 541.484375 L 967.492188 541.484375 L 968.257812 537.375 C 965.277344 540.480469 962.558594 542.03125 960.101562 542.03125 C 957.976562 542.03125 956.265625 541.25 954.976562 539.6875 C 953.683594 538.125 953.039062 535.976562 953.039062 533.234375 C 953.039062 530.152344 953.710938 527.273438 955.054688 524.59375 C 956.398438 521.917969 958.195312 519.828125 960.445312 518.328125 C 962.695312 516.820312 965.136719 516.0625 967.773438 516.0625 C 969.898438 516.0625 971.902344 516.433594 973.789062 517.171875 L 974.976562 516.28125 L 976.398438 516.28125 Z M 971.476562 519.421875 C 970.789062 518.945312 970.140625 518.617188 969.539062 518.4375 C 968.945312 518.25 968.210938 518.15625 967.335938 518.15625 C 965.574219 518.15625 963.960938 518.820312 962.492188 520.140625 C 961.023438 521.464844 959.867188 523.25 959.023438 525.5 C 958.179688 527.75 957.757812 530.101562 957.757812 532.546875 C 957.757812 534.421875 958.140625 535.921875 958.914062 537.046875 C 959.695312 538.171875 960.75 538.734375 962.085938 538.734375 C 964.0625 538.734375 966.234375 537.515625 968.601562 535.078125 Z M 971.476562 519.421875 "/>
<path fill-rule="nonzero" fill="var(--main-color)" fill-opacity="1" d="M 997.757812 516.046875 C 998.632812 516.046875 999.324219 516.117188 999.835938 516.25 L 998.679688 522.734375 L 997.539062 522.734375 L 996.539062 519.390625 C 995.132812 519.390625 993.679688 519.929688 992.179688 521 C 990.679688 522.074219 989.304688 523.484375 988.054688 525.234375 L 985.226562 541.484375 L 980.851562 541.484375 L 984.882812 518.546875 L 981.773438 517.890625 L 981.992188 516.703125 L 989.289062 516.703125 L 988.476562 522.28125 C 989.789062 520.304688 991.257812 518.773438 992.882812 517.6875 C 994.515625 516.59375 996.140625 516.046875 997.757812 516.046875 Z M 997.757812 516.046875 "/>
<path fill-rule="nonzero" fill="var(--main-color)" fill-opacity="1" d="M 1006.820312 536.890625 C 1006.820312 537.683594 1007.011719 538.277344 1007.398438 538.671875 C 1007.792969 539.070312 1008.304688 539.265625 1008.929688 539.265625 C 1010.210938 539.265625 1011.542969 539.007812 1012.929688 538.484375 L 1013.476562 539.71875 C 1011.320312 541.25 1009.132812 542.015625 1006.914062 542.015625 C 1005.527344 542.015625 1004.433594 541.59375 1003.632812 540.75 C 1002.828125 539.90625 1002.429688 538.730469 1002.429688 537.21875 C 1002.429688 536.710938 1002.476562 536.105469 1002.570312 535.40625 C 1002.671875 534.710938 1003.636719 529.210938 1005.460938 518.90625 L 1002.226562 518.90625 L 1002.429688 517.734375 L 1005.945312 516.703125 L 1009.554688 511.078125 L 1011.242188 511.078125 L 1010.273438 516.703125 L 1015.929688 516.703125 L 1015.507812 518.90625 L 1009.851562 518.90625 L 1007.289062 533.390625 C 1006.976562 535.007812 1006.820312 536.171875 1006.820312 536.890625 Z M 1006.820312 536.890625 "/>
<g clip-path="url(#clip-14)">
<g clip-path="url(#clip-15)">
<path fill-rule="nonzero" fill="var(--main-color)" fill-opacity="1" d="M 1009.296875 423.9375 L 1013.433594 422.074219 L 1015.679688 427.050781 L 1011.542969 428.914062 Z M 1009.296875 423.9375 "/>
</g>
</g>
<g clip-path="url(#clip-16)">
<g clip-path="url(#clip-17)">
<path fill-rule="nonzero" fill="var(--main-color)" fill-opacity="1" d="M 1020.746094 392.714844 C 1018.710938 393.632812 1017.628906 395.324219 1017.507812 397.796875 C 1017.386719 400.257812 1018.230469 403.5 1020.046875 407.523438 C 1021.851562 411.53125 1023.71875 414.308594 1025.648438 415.851562 C 1027.578125 417.394531 1029.5625 417.707031 1031.597656 416.789062 C 1033.648438 415.863281 1034.734375 414.167969 1034.855469 411.699219 C 1034.976562 409.230469 1034.136719 405.992188 1032.328125 401.988281 C 1030.515625 397.964844 1028.644531 395.183594 1026.714844 393.644531 C 1024.785156 392.101562 1022.796875 391.789062 1020.746094 392.714844 M 1019.332031 389.582031 C 1022.613281 388.101562 1025.703125 388.269531 1028.601562 390.085938 C 1031.5 391.898438 1034.058594 395.269531 1036.285156 400.203125 C 1038.503906 405.125 1039.332031 409.273438 1038.773438 412.648438 C 1038.210938 416.019531 1036.289062 418.445312 1033.011719 419.921875 C 1029.734375 421.398438 1026.648438 421.234375 1023.75 419.421875 C 1020.851562 417.605469 1018.292969 414.238281 1016.070312 409.316406 C 1013.847656 404.382812 1013.015625 400.230469 1013.578125 396.859375 C 1014.136719 393.484375 1016.054688 391.058594 1019.332031 389.582031 "/>
</g>
</g>
<g clip-path="url(#clip-18)">
<g clip-path="url(#clip-19)">
<path fill-rule="nonzero" fill="var(--main-color)" fill-opacity="1" d="M 1049 408.023438 L 1055.464844 405.109375 L 1045.402344 382.796875 L 1039.007812 387.378906 L 1037.382812 383.773438 L 1043.742188 379.210938 L 1047.695312 377.425781 L 1059.378906 403.34375 L 1065.84375 400.429688 L 1067.34375 403.757812 L 1050.503906 411.351562 Z M 1049 408.023438 "/>
</g>
</g>
<g clip-path="url(#clip-20)">
<g clip-path="url(#clip-21)">
<path fill-rule="nonzero" fill="var(--main-color)" fill-opacity="1" d="M 867.058594 589.917969 L 868.757812 594.125 L 863.695312 596.167969 L 861.996094 591.960938 Z M 867.058594 589.917969 "/>
</g>
</g>
<g clip-path="url(#clip-22)">
<g clip-path="url(#clip-23)">
<path fill-rule="nonzero" fill="var(--main-color)" fill-opacity="1" d="M 888.199219 610.648438 C 888.5625 612.738281 888.3125 614.585938 887.445312 616.195312 C 886.582031 617.800781 885.191406 618.992188 883.28125 619.765625 C 880.347656 620.949219 877.667969 620.859375 875.242188 619.488281 C 872.820312 618.121094 870.859375 615.574219 869.359375 611.855469 C 868.855469 610.613281 868.460938 609.277344 868.171875 607.859375 C 867.886719 606.4375 867.703125 604.921875 867.628906 603.316406 L 871.511719 601.75 C 871.308594 603.125 871.3125 604.542969 871.515625 606.003906 C 871.722656 607.46875 872.117188 608.921875 872.703125 610.371094 C 873.71875 612.894531 874.992188 614.613281 876.523438 615.53125 C 878.050781 616.453125 879.765625 616.53125 881.664062 615.761719 C 883.417969 615.054688 884.542969 613.886719 885.03125 612.257812 C 885.527344 610.632812 885.332031 608.722656 884.445312 606.535156 L 883.046875 603.066406 L 886.355469 601.730469 L 887.820312 605.355469 C 888.617188 607.332031 889.625 608.6875 890.839844 609.417969 C 892.054688 610.148438 893.402344 610.210938 894.890625 609.613281 C 896.417969 608.996094 897.367188 607.980469 897.746094 606.566406 C 898.132812 605.15625 897.914062 603.441406 897.101562 601.421875 C 896.652344 600.320312 896.054688 599.183594 895.304688 598.019531 C 894.554688 596.851562 893.625 595.617188 892.511719 594.304688 L 896.09375 592.859375 C 897.136719 594.214844 898.035156 595.519531 898.785156 596.769531 C 899.539062 598.015625 900.152344 599.230469 900.628906 600.414062 C 901.863281 603.46875 902.144531 606.164062 901.472656 608.503906 C 900.804688 610.84375 899.292969 612.492188 896.929688 613.445312 C 895.28125 614.109375 893.699219 614.203125 892.183594 613.714844 C 890.667969 613.230469 889.339844 612.207031 888.199219 610.648438 "/>
</g>
</g>
<g clip-path="url(#clip-24)">
<g clip-path="url(#clip-25)">
<path fill-rule="nonzero" fill="var(--main-color)" fill-opacity="1" d="M 895.320312 633.785156 C 894.546875 631.875 893.429688 630.578125 891.960938 629.894531 C 890.496094 629.214844 888.867188 629.238281 887.078125 629.960938 C 885.285156 630.683594 884.097656 631.800781 883.515625 633.304688 C 882.933594 634.816406 883.027344 636.527344 883.800781 638.4375 C 884.574219 640.351562 885.695312 641.652344 887.167969 642.335938 C 888.648438 643.023438 890.277344 643.007812 892.058594 642.289062 C 893.847656 641.566406 895.03125 640.449219 895.613281 638.941406 C 896.199219 637.433594 896.097656 635.714844 895.320312 633.785156 M 895.402344 629.074219 C 895.132812 627.175781 895.390625 625.507812 896.183594 624.066406 C 896.980469 622.625 898.230469 621.5625 899.929688 620.878906 C 902.304688 619.917969 904.527344 620.003906 906.589844 621.136719 C 908.65625 622.277344 910.285156 624.316406 911.472656 627.261719 C 912.671875 630.226562 912.917969 632.828125 912.21875 635.074219 C 911.519531 637.320312 909.980469 638.921875 907.605469 639.878906 C 905.90625 640.566406 904.269531 640.667969 902.691406 640.179688 C 901.125 639.699219 899.78125 638.6875 898.664062 637.144531 C 898.996094 639.265625 898.722656 641.128906 897.839844 642.742188 C 896.964844 644.355469 895.578125 645.546875 893.683594 646.3125 C 890.796875 647.476562 888.226562 647.492188 885.976562 646.355469 C 883.726562 645.21875 881.9375 643.007812 880.613281 639.726562 C 879.289062 636.449219 879.042969 633.621094 879.867188 631.234375 C 880.699219 628.851562 882.558594 627.078125 885.445312 625.914062 C 887.339844 625.148438 889.164062 625.042969 890.917969 625.601562 C 892.675781 626.160156 894.171875 627.320312 895.402344 629.074219 M 901.164062 625.035156 C 899.625 625.65625 898.621094 626.621094 898.144531 627.929688 C 897.671875 629.242188 897.785156 630.769531 898.488281 632.507812 C 899.1875 634.238281 900.164062 635.414062 901.421875 636.039062 C 902.675781 636.667969 904.074219 636.671875 905.613281 636.050781 C 907.15625 635.425781 908.160156 634.453125 908.628906 633.128906 C 909.097656 631.804688 908.984375 630.28125 908.285156 628.550781 C 907.585938 626.8125 906.605469 625.636719 905.355469 625.019531 C 904.105469 624.40625 902.707031 624.410156 901.164062 625.035156 "/>
</g>
</g>
<path fill="none" stroke-width="8" stroke-linecap="butt" stroke-linejoin="miter" stroke="var(--main-color)" stroke-opacity="1" stroke-dasharray="16 8" stroke-miterlimit="4" d="M 240.144531 708.1875 L 155.386719 810.835938 " transform="matrix(1, 0, 0, -1, 0, 889)"/>
<path fill="none" stroke-width="8" stroke-linecap="butt" stroke-linejoin="miter" stroke="var(--main-color)" stroke-opacity="1" stroke-dasharray="16 8" stroke-miterlimit="4" d="M 253.328125 701.878906 L 562.21875 683.042969 " transform="matrix(1, 0, 0, -1, 0, 889)"/>
<path fill="none" stroke-width="8" stroke-linecap="butt" stroke-linejoin="miter" stroke="var(--main-color)" stroke-opacity="1" stroke-dasharray="16 8" stroke-miterlimit="4" d="M 559.390625 684.644531 L 571.632812 909.71875 " transform="matrix(1, 0, 0, -1, 0, 889)"/>
<path fill="none" stroke-width="8" stroke-linecap="butt" stroke-linejoin="miter" stroke="var(--main-color)" stroke-opacity="1" stroke-dasharray="16 8" stroke-miterlimit="4" d="M 831.554688 553.742188 L 1115.015625 668.632812 " transform="matrix(1, 0, 0, -1, 0, 889)"/>
<path fill="none" stroke-width="8" stroke-linecap="butt" stroke-linejoin="miter" stroke="var(--main-color)" stroke-opacity="1" stroke-dasharray="16 8" stroke-miterlimit="4" d="M 890.226562 381.402344 L 1142.609375 497.238281 " transform="matrix(1, 0, 0, -1, 0, 889)"/>
<path fill="none" stroke-width="8" stroke-linecap="butt" stroke-linejoin="miter" stroke="var(--main-color)" stroke-opacity="1" stroke-dasharray="16 8" stroke-miterlimit="4" d="M 964.621094 158.304688 L 1036.195312 -18.742188 " transform="matrix(1, 0, 0, -1, 0, 889)"/>
<path fill="none" stroke-width="8" stroke-linecap="butt" stroke-linejoin="miter" stroke="var(--main-color)" stroke-opacity="1" stroke-dasharray="16 8" stroke-miterlimit="4" d="M 793.882812 677.109375 L 792 939.855469 " transform="matrix(1, 0, 0, -1, 0, 889)"/>
<path fill="none" stroke-width="8" stroke-linecap="butt" stroke-linejoin="miter" stroke="var(--main-color)" stroke-opacity="1" stroke-dasharray="16 8" stroke-miterlimit="4" d="M 527.746094 183.640625 L 513.621094 -18.835938 " transform="matrix(1, 0, 0, -1, 0, 889)"/>
<path fill="none" stroke-width="8" stroke-linecap="butt" stroke-linejoin="miter" stroke="var(--main-color)" stroke-opacity="1" stroke-dasharray="16 8" stroke-miterlimit="4" d="M 227.902344 206.242188 L -29.195312 220.367188 " transform="matrix(1, 0, 0, -1, 0, 889)"/>
<path fill="none" stroke-width="8" stroke-linecap="butt" stroke-linejoin="miter" stroke="var(--main-color)" stroke-opacity="1" stroke-dasharray="16 8" stroke-miterlimit="4" d="M -63.945312 643.773438 C 316.515625 943.246094 316.515625 944.1875 316.515625 944.1875 " transform="matrix(1, 0, 0, -1, 0, 889)"/>
<path fill-rule="evenodd" fill="rgb(94.116211%, 0%, 0%)" fill-opacity="1" stroke-width="8.8" stroke-linecap="butt" stroke-linejoin="miter" stroke="rgb(94.116211%, 0%, 0%)" stroke-opacity="1" stroke-dasharray="17.6 8.8" stroke-miterlimit="4" d="M 891.167969 379.519531 L 960.855469 164.804688 " transform="matrix(1, 0, 0, -1, 0, 889)"/>
<path fill="none" stroke-width="8.8" stroke-linecap="butt" stroke-linejoin="miter" stroke="rgb(94.116211%, 0%, 0%)" stroke-opacity="1" stroke-dasharray="17.6 8.8" stroke-miterlimit="4" d="M 529.914062 183.921875 L 962.171875 162.261719 " transform="matrix(1, 0, 0, -1, 0, 889)"/>
<path fill-rule="nonzero" fill="rgb(94.116211%, 0%, 0%)" fill-opacity="1" d="M 527.511719 703.488281 L 226.886719 682.523438 "/>
<g clip-path="url(#clip-26)">
<path fill="none" stroke-width="14" stroke-linecap="square" stroke-linejoin="round" stroke="rgb(94.116211%, 0%, 0%)" stroke-opacity="1" stroke-miterlimit="100000" d="M 527.511719 185.511719 L 226.886719 206.476562 " transform="matrix(1, 0, 0, -1, 0, 889)"/>
</g>
<path fill-rule="nonzero" fill="rgb(94.116211%, 0%, 0%)" fill-opacity="1" d="M 273.84375 206.679688 L 251.011719 205.164062 L 228.183594 203.648438 L 240.90625 184.636719 L 253.632812 165.621094 L 263.738281 186.148438 Z M 273.84375 206.679688 "/>
<path fill-rule="nonzero" fill="rgb(94.116211%, 0%, 0%)" fill-opacity="1" d="M 674.988281 207.324219 L 560.128906 202.664062 "/>
<g clip-path="url(#clip-27)">
<path fill="none" stroke-width="14" stroke-linecap="square" stroke-linejoin="round" stroke="rgb(94.116211%, 0%, 0%)" stroke-opacity="1" stroke-miterlimit="100000" d="M 674.988281 681.675781 L 560.128906 686.335938 " transform="matrix(1, 0, 0, -1, 0, 889)"/>
</g>
<path fill-rule="nonzero" fill="rgb(94.116211%, 0%, 0%)" fill-opacity="1" d="M 794.105469 211.984375 L 674.988281 207.324219 "/>
<g clip-path="url(#clip-28)">
<path fill="none" stroke-width="14" stroke-linecap="square" stroke-linejoin="round" stroke="rgb(94.116211%, 0%, 0%)" stroke-opacity="1" stroke-miterlimit="100000" d="M 794.105469 677.015625 L 674.988281 681.675781 " transform="matrix(1, 0, 0, -1, 0, 889)"/>
</g>
<path fill-rule="nonzero" fill="rgb(94.116211%, 0%, 0%)" fill-opacity="1" d="M 560.128906 202.664062 L 527.511719 703.488281 "/>
<g clip-path="url(#clip-29)">
<path fill="none" stroke-width="14" stroke-linecap="square" stroke-linejoin="round" stroke="rgb(94.116211%, 0%, 0%)" stroke-opacity="1" stroke-miterlimit="100000" d="M 560.128906 686.335938 L 527.511719 185.511719 " transform="matrix(1, 0, 0, -1, 0, 889)"/>
</g>
<path fill-rule="nonzero" fill="rgb(94.116211%, 0%, 0%)" fill-opacity="1" stroke-width="0.5" stroke-linecap="butt" stroke-linejoin="round" stroke="rgb(94.116211%, 0%, 0%)" stroke-opacity="1" stroke-miterlimit="100000" d="M 889.113281 365.507812 C 893.886719 365.507812 898.464844 367.40625 901.839844 370.78125 C 905.214844 374.15625 907.113281 378.734375 907.113281 383.507812 C 907.113281 388.28125 905.214844 392.859375 901.839844 396.238281 C 898.464844 399.613281 893.886719 401.507812 889.113281 401.507812 C 884.339844 401.507812 879.761719 399.613281 876.386719 396.238281 C 873.007812 392.859375 871.113281 388.28125 871.113281 383.507812 C 871.113281 378.734375 873.007812 374.15625 876.386719 370.78125 C 879.761719 367.40625 884.339844 365.507812 889.113281 365.507812 Z M 889.113281 365.507812 " transform="matrix(1, 0, 0, -1, 0, 889)"/>
<path fill-rule="nonzero" fill="rgb(94.116211%, 0%, 0%)" fill-opacity="1" d="M 889.113281 505.492188 L 811.121094 279.539062 "/>
<g clip-path="url(#clip-30)">
<path fill="none" stroke-width="14" stroke-linecap="square" stroke-linejoin="round" stroke="rgb(94.116211%, 0%, 0%)" stroke-opacity="1" stroke-miterlimit="100000" d="M 889.113281 383.507812 L 811.121094 609.460938 " transform="matrix(1, 0, 0, -1, 0, 889)"/>
</g>
<path fill="none" stroke-width="8" stroke-linecap="butt" stroke-linejoin="miter" stroke="var(--main-color)" stroke-opacity="1" stroke-dasharray="16 8" stroke-miterlimit="4" d="M 985.714844 915.5625 L 793.601562 855.289062 " transform="matrix(1, 0, 0, -1, 0, 889)"/>
</svg>
